<mxfile host="app.diagrams.net" modified="2021-05-20T10:27:10.464Z" agent="5.0 (Windows NT 10.0; Win64; x64) AppleWebKit/537.36 (KHTML, like Gecko) Chrome/90.0.4430.212 Safari/537.36" etag="7RsTRT_VpmWX-CRGF_VM" version="14.6.11" type="github">
  <diagram id="g5ZeaVctmOo560GbVPkt" name="Page-1">
    <mxGraphModel dx="1718" dy="935" grid="1" gridSize="10" guides="1" tooltips="1" connect="1" arrows="1" fold="1" page="1" pageScale="1" pageWidth="827" pageHeight="1169" math="0" shadow="0">
      <root>
        <mxCell id="0" />
        <mxCell id="1" parent="0" />
        <mxCell id="iKkOTxImxHK23aBrevqH-1" value="" style="rounded=1;whiteSpace=wrap;html=1;arcSize=2;strokeColor=#00AAA2;" parent="1" vertex="1">
          <mxGeometry x="390" y="261" width="180" height="175" as="geometry" />
        </mxCell>
        <mxCell id="iKkOTxImxHK23aBrevqH-27" value="&lt;font style=&quot;font-size: 14px ; line-height: 60%&quot;&gt;&amp;nbsp; Slider&lt;/font&gt;" style="rounded=1;whiteSpace=wrap;html=1;arcSize=19;fontColor=#FFFFFF;align=left;strokeColor=none;fillColor=#00AAA2;" parent="1" vertex="1">
          <mxGeometry x="397" y="403" width="164" height="24" as="geometry" />
        </mxCell>
        <mxCell id="iKkOTxImxHK23aBrevqH-7" value="" style="rounded=1;whiteSpace=wrap;html=1;arcSize=2;strokeColor=#00AAA2;" parent="1" vertex="1">
          <mxGeometry x="390" y="261" width="180" height="20" as="geometry" />
        </mxCell>
        <mxCell id="iKkOTxImxHK23aBrevqH-5" value="" style="ellipse;whiteSpace=wrap;html=1;aspect=fixed;fontColor=#00AAA2;fillColor=#00AAA2;strokeColor=none;" parent="1" vertex="1">
          <mxGeometry x="395" y="266" width="11" height="11" as="geometry" />
        </mxCell>
        <mxCell id="iKkOTxImxHK23aBrevqH-9" value="" style="ellipse;whiteSpace=wrap;html=1;aspect=fixed;fontColor=#2F7FEF;fillColor=#00AAA2;strokeColor=none;" parent="1" vertex="1">
          <mxGeometry x="411" y="266" width="11" height="11" as="geometry" />
        </mxCell>
        <mxCell id="iKkOTxImxHK23aBrevqH-10" value="" style="ellipse;whiteSpace=wrap;html=1;aspect=fixed;fontColor=#2F7FEF;fillColor=#00AAA2;strokeColor=none;" parent="1" vertex="1">
          <mxGeometry x="427" y="266" width="11" height="11" as="geometry" />
        </mxCell>
        <mxCell id="iKkOTxImxHK23aBrevqH-13" value="&lt;font style=&quot;font-size: 14px ; line-height: 60%&quot;&gt;&amp;nbsp; Header&lt;/font&gt;" style="rounded=1;whiteSpace=wrap;html=1;arcSize=19;fillColor=#2F7FEF;fontColor=#FFFFFF;align=left;strokeColor=none;" parent="1" vertex="1">
          <mxGeometry x="397" y="316" width="164" height="24" as="geometry" />
        </mxCell>
        <mxCell id="iKkOTxImxHK23aBrevqH-2" value="Home Page" style="text;strokeColor=none;align=left;verticalAlign=top;spacingLeft=4;spacingRight=4;overflow=hidden;rotatable=0;points=[[0,0.5],[1,0.5]];portConstraint=eastwest;fontStyle=1;fontSize=16;labelBackgroundColor=none;fontColor=#00AAA2;" parent="1" vertex="1">
          <mxGeometry x="398" y="281" width="102" height="30" as="geometry" />
        </mxCell>
        <mxCell id="iKkOTxImxHK23aBrevqH-16" value="&lt;font style=&quot;font-size: 14px ; line-height: 60%&quot;&gt;&amp;nbsp; Banner&lt;/font&gt;" style="rounded=1;whiteSpace=wrap;html=1;arcSize=19;fontColor=#FFFFFF;align=left;strokeColor=none;fillColor=#00AAA2;" parent="1" vertex="1">
          <mxGeometry x="397" y="345" width="164" height="24" as="geometry" />
        </mxCell>
        <mxCell id="iKkOTxImxHK23aBrevqH-26" value="&lt;font style=&quot;font-size: 14px ; line-height: 60%&quot;&gt;&amp;nbsp; Section Banner&lt;/font&gt;" style="rounded=1;whiteSpace=wrap;html=1;arcSize=19;fontColor=#FFFFFF;align=left;strokeColor=none;fillColor=#00AAA2;" parent="1" vertex="1">
          <mxGeometry x="397" y="374" width="164" height="24" as="geometry" />
        </mxCell>
        <mxCell id="iKkOTxImxHK23aBrevqH-30" value="" style="rounded=1;whiteSpace=wrap;html=1;arcSize=2;strokeColor=#00AAA2;" parent="1" vertex="1">
          <mxGeometry x="270" y="497" width="180" height="207" as="geometry" />
        </mxCell>
        <mxCell id="iKkOTxImxHK23aBrevqH-31" value="&lt;span style=&quot;font-size: 14px&quot;&gt;&amp;nbsp; Filter &amp;amp; Sort&lt;/span&gt;" style="rounded=1;whiteSpace=wrap;html=1;arcSize=19;fontColor=#FFFFFF;align=left;strokeColor=none;fillColor=#00AAA2;" parent="1" vertex="1">
          <mxGeometry x="277" y="639" width="164" height="24" as="geometry" />
        </mxCell>
        <mxCell id="iKkOTxImxHK23aBrevqH-32" value="" style="rounded=1;whiteSpace=wrap;html=1;arcSize=2;strokeColor=#00AAA2;" parent="1" vertex="1">
          <mxGeometry x="270" y="497" width="180" height="20" as="geometry" />
        </mxCell>
        <mxCell id="iKkOTxImxHK23aBrevqH-33" value="" style="ellipse;whiteSpace=wrap;html=1;aspect=fixed;fontColor=#00AAA2;fillColor=#00AAA2;strokeColor=none;" parent="1" vertex="1">
          <mxGeometry x="275" y="502" width="11" height="11" as="geometry" />
        </mxCell>
        <mxCell id="iKkOTxImxHK23aBrevqH-34" value="" style="ellipse;whiteSpace=wrap;html=1;aspect=fixed;fontColor=#2F7FEF;fillColor=#00AAA2;strokeColor=none;" parent="1" vertex="1">
          <mxGeometry x="291" y="502" width="11" height="11" as="geometry" />
        </mxCell>
        <mxCell id="iKkOTxImxHK23aBrevqH-35" value="" style="ellipse;whiteSpace=wrap;html=1;aspect=fixed;fontColor=#2F7FEF;fillColor=#00AAA2;strokeColor=none;" parent="1" vertex="1">
          <mxGeometry x="307" y="502" width="11" height="11" as="geometry" />
        </mxCell>
        <mxCell id="iKkOTxImxHK23aBrevqH-36" value="&lt;font style=&quot;font-size: 14px ; line-height: 60%&quot;&gt;&amp;nbsp; Product Tiles&lt;/font&gt;" style="rounded=1;whiteSpace=wrap;html=1;arcSize=19;fillColor=#2F7FEF;fontColor=#FFFFFF;align=left;strokeColor=none;" parent="1" vertex="1">
          <mxGeometry x="277" y="552" width="164" height="24" as="geometry" />
        </mxCell>
        <mxCell id="iKkOTxImxHK23aBrevqH-37" value="Product Collection" style="text;strokeColor=none;align=left;verticalAlign=top;spacingLeft=4;spacingRight=4;overflow=hidden;rotatable=0;points=[[0,0.5],[1,0.5]];portConstraint=eastwest;fontStyle=1;fontSize=16;labelBackgroundColor=none;fontColor=#00AAA2;" parent="1" vertex="1">
          <mxGeometry x="278" y="517" width="172" height="30" as="geometry" />
        </mxCell>
        <mxCell id="iKkOTxImxHK23aBrevqH-38" value="&lt;span style=&quot;font-size: 14px&quot;&gt;&amp;nbsp; Product Thumbnails&lt;/span&gt;" style="rounded=1;whiteSpace=wrap;html=1;arcSize=19;fontColor=#FFFFFF;align=left;strokeColor=none;fillColor=#2F7FEF;" parent="1" vertex="1">
          <mxGeometry x="277" y="581" width="164" height="24" as="geometry" />
        </mxCell>
        <mxCell id="iKkOTxImxHK23aBrevqH-39" value="&lt;span style=&quot;font-size: 14px&quot;&gt;&amp;nbsp; Product Price&lt;/span&gt;" style="rounded=1;whiteSpace=wrap;html=1;arcSize=19;fontColor=#FFFFFF;align=left;strokeColor=none;fillColor=#2F7FEF;" parent="1" vertex="1">
          <mxGeometry x="277" y="610" width="164" height="24" as="geometry" />
        </mxCell>
        <mxCell id="iKkOTxImxHK23aBrevqH-40" value="&lt;span style=&quot;font-size: 14px&quot;&gt;&amp;nbsp; Back To Top&lt;/span&gt;" style="rounded=1;whiteSpace=wrap;html=1;arcSize=19;fontColor=#FFFFFF;align=left;strokeColor=none;fillColor=#00AAA2;" parent="1" vertex="1">
          <mxGeometry x="277" y="670" width="164" height="24" as="geometry" />
        </mxCell>
        <mxCell id="iKkOTxImxHK23aBrevqH-41" value="" style="rounded=1;whiteSpace=wrap;html=1;arcSize=2;strokeColor=#00AAA2;" parent="1" vertex="1">
          <mxGeometry x="30" y="497" width="180" height="267" as="geometry" />
        </mxCell>
        <mxCell id="iKkOTxImxHK23aBrevqH-42" value="&lt;span style=&quot;font-size: 14px&quot;&gt;&amp;nbsp; FAQ&lt;/span&gt;" style="rounded=1;whiteSpace=wrap;html=1;arcSize=19;fontColor=#FFFFFF;align=left;strokeColor=none;fillColor=#00AAA2;" parent="1" vertex="1">
          <mxGeometry x="37" y="639" width="164" height="24" as="geometry" />
        </mxCell>
        <mxCell id="iKkOTxImxHK23aBrevqH-43" value="" style="rounded=1;whiteSpace=wrap;html=1;arcSize=2;strokeColor=#00AAA2;" parent="1" vertex="1">
          <mxGeometry x="30" y="497" width="180" height="20" as="geometry" />
        </mxCell>
        <mxCell id="iKkOTxImxHK23aBrevqH-44" value="" style="ellipse;whiteSpace=wrap;html=1;aspect=fixed;fontColor=#00AAA2;fillColor=#00AAA2;strokeColor=none;" parent="1" vertex="1">
          <mxGeometry x="35" y="502" width="11" height="11" as="geometry" />
        </mxCell>
        <mxCell id="iKkOTxImxHK23aBrevqH-45" value="" style="ellipse;whiteSpace=wrap;html=1;aspect=fixed;fontColor=#2F7FEF;fillColor=#00AAA2;strokeColor=none;" parent="1" vertex="1">
          <mxGeometry x="51" y="502" width="11" height="11" as="geometry" />
        </mxCell>
        <mxCell id="iKkOTxImxHK23aBrevqH-46" value="" style="ellipse;whiteSpace=wrap;html=1;aspect=fixed;fontColor=#2F7FEF;fillColor=#00AAA2;strokeColor=none;" parent="1" vertex="1">
          <mxGeometry x="67" y="502" width="11" height="11" as="geometry" />
        </mxCell>
        <mxCell id="iKkOTxImxHK23aBrevqH-47" value="&lt;span style=&quot;font-size: 14px&quot;&gt;&amp;nbsp; About Us&lt;/span&gt;" style="rounded=1;whiteSpace=wrap;html=1;arcSize=19;fillColor=#2F7FEF;fontColor=#FFFFFF;align=left;strokeColor=none;" parent="1" vertex="1">
          <mxGeometry x="37" y="552" width="164" height="24" as="geometry" />
        </mxCell>
        <mxCell id="iKkOTxImxHK23aBrevqH-48" value="Static Pages" style="text;strokeColor=none;align=left;verticalAlign=top;spacingLeft=4;spacingRight=4;overflow=hidden;rotatable=0;points=[[0,0.5],[1,0.5]];portConstraint=eastwest;fontStyle=1;fontSize=16;labelBackgroundColor=none;fontColor=#00AAA2;" parent="1" vertex="1">
          <mxGeometry x="38" y="517" width="172" height="30" as="geometry" />
        </mxCell>
        <mxCell id="iKkOTxImxHK23aBrevqH-49" value="&lt;span style=&quot;font-size: 14px&quot;&gt;&amp;nbsp; Shipping information&lt;/span&gt;" style="rounded=1;whiteSpace=wrap;html=1;arcSize=19;fontColor=#FFFFFF;align=left;strokeColor=none;fillColor=#00AAA2;" parent="1" vertex="1">
          <mxGeometry x="37" y="581" width="164" height="24" as="geometry" />
        </mxCell>
        <mxCell id="iKkOTxImxHK23aBrevqH-50" value="&lt;span style=&quot;font-size: 14px&quot;&gt;&amp;nbsp; Returns &amp;amp; Exchanges&lt;/span&gt;" style="rounded=1;whiteSpace=wrap;html=1;arcSize=19;fontColor=#FFFFFF;align=left;strokeColor=none;fillColor=#00AAA2;" parent="1" vertex="1">
          <mxGeometry x="37" y="610" width="164" height="24" as="geometry" />
        </mxCell>
        <mxCell id="iKkOTxImxHK23aBrevqH-51" value="&lt;span style=&quot;font-size: 14px&quot;&gt;&amp;nbsp; Terms &amp;amp; Conditions&lt;/span&gt;" style="rounded=1;whiteSpace=wrap;html=1;arcSize=19;fontColor=#FFFFFF;align=left;strokeColor=none;fillColor=#00AAA2;" parent="1" vertex="1">
          <mxGeometry x="37" y="668" width="164" height="24" as="geometry" />
        </mxCell>
        <mxCell id="iKkOTxImxHK23aBrevqH-52" value="&lt;span style=&quot;font-size: 14px&quot;&gt;&amp;nbsp; Privacy Policy&lt;/span&gt;" style="rounded=1;whiteSpace=wrap;html=1;arcSize=19;fontColor=#FFFFFF;align=left;strokeColor=none;fillColor=#00AAA2;" parent="1" vertex="1">
          <mxGeometry x="37" y="698" width="164" height="24" as="geometry" />
        </mxCell>
        <mxCell id="iKkOTxImxHK23aBrevqH-53" value="&lt;span style=&quot;font-size: 14px&quot;&gt;&amp;nbsp; Find a Store&lt;/span&gt;" style="rounded=1;whiteSpace=wrap;html=1;arcSize=19;fontColor=#FFFFFF;align=left;strokeColor=none;fillColor=#00AAA2;" parent="1" vertex="1">
          <mxGeometry x="38" y="729" width="164" height="24" as="geometry" />
        </mxCell>
        <mxCell id="iKkOTxImxHK23aBrevqH-54" value="" style="rounded=1;whiteSpace=wrap;html=1;arcSize=2;strokeColor=#00AAA2;" parent="1" vertex="1">
          <mxGeometry x="730" y="497" width="180" height="148" as="geometry" />
        </mxCell>
        <mxCell id="iKkOTxImxHK23aBrevqH-56" value="" style="rounded=1;whiteSpace=wrap;html=1;arcSize=2;strokeColor=#00AAA2;" parent="1" vertex="1">
          <mxGeometry x="730" y="497" width="180" height="20" as="geometry" />
        </mxCell>
        <mxCell id="iKkOTxImxHK23aBrevqH-57" value="" style="ellipse;whiteSpace=wrap;html=1;aspect=fixed;fontColor=#00AAA2;fillColor=#00AAA2;strokeColor=none;" parent="1" vertex="1">
          <mxGeometry x="735" y="502" width="11" height="11" as="geometry" />
        </mxCell>
        <mxCell id="iKkOTxImxHK23aBrevqH-58" value="" style="ellipse;whiteSpace=wrap;html=1;aspect=fixed;fontColor=#2F7FEF;fillColor=#00AAA2;strokeColor=none;" parent="1" vertex="1">
          <mxGeometry x="751" y="502" width="11" height="11" as="geometry" />
        </mxCell>
        <mxCell id="iKkOTxImxHK23aBrevqH-59" value="" style="ellipse;whiteSpace=wrap;html=1;aspect=fixed;fontColor=#2F7FEF;fillColor=#00AAA2;strokeColor=none;" parent="1" vertex="1">
          <mxGeometry x="767" y="502" width="11" height="11" as="geometry" />
        </mxCell>
        <mxCell id="iKkOTxImxHK23aBrevqH-60" value="&lt;span style=&quot;font-size: 14px&quot;&gt;&amp;nbsp; Sign In&lt;/span&gt;" style="rounded=1;whiteSpace=wrap;html=1;arcSize=19;fillColor=#2F7FEF;fontColor=#FFFFFF;align=left;strokeColor=none;" parent="1" vertex="1">
          <mxGeometry x="737" y="552" width="164" height="24" as="geometry" />
        </mxCell>
        <mxCell id="iKkOTxImxHK23aBrevqH-61" value="Login Pages" style="text;strokeColor=none;align=left;verticalAlign=top;spacingLeft=4;spacingRight=4;overflow=hidden;rotatable=0;points=[[0,0.5],[1,0.5]];portConstraint=eastwest;fontStyle=1;fontSize=16;labelBackgroundColor=none;fontColor=#00AAA2;" parent="1" vertex="1">
          <mxGeometry x="738" y="517" width="172" height="30" as="geometry" />
        </mxCell>
        <mxCell id="iKkOTxImxHK23aBrevqH-62" value="&lt;span style=&quot;font-size: 14px&quot;&gt;&amp;nbsp; Join Us&lt;/span&gt;" style="rounded=1;whiteSpace=wrap;html=1;arcSize=19;fontColor=#FFFFFF;align=left;strokeColor=none;fillColor=#2F7FEF;" parent="1" vertex="1">
          <mxGeometry x="737" y="581" width="164" height="24" as="geometry" />
        </mxCell>
        <mxCell id="iKkOTxImxHK23aBrevqH-63" value="&lt;span style=&quot;font-size: 14px&quot;&gt;&amp;nbsp; Forgot Password&lt;/span&gt;" style="rounded=1;whiteSpace=wrap;html=1;arcSize=19;fontColor=#FFFFFF;align=left;strokeColor=none;fillColor=#00AAA2;" parent="1" vertex="1">
          <mxGeometry x="737" y="610" width="164" height="24" as="geometry" />
        </mxCell>
        <mxCell id="iKkOTxImxHK23aBrevqH-77" value="" style="rounded=1;whiteSpace=wrap;html=1;arcSize=2;strokeColor=#00AAA2;" parent="1" vertex="1">
          <mxGeometry x="500" y="497" width="180" height="178" as="geometry" />
        </mxCell>
        <mxCell id="iKkOTxImxHK23aBrevqH-78" value="" style="rounded=1;whiteSpace=wrap;html=1;arcSize=2;strokeColor=#00AAA2;" parent="1" vertex="1">
          <mxGeometry x="500" y="497" width="180" height="20" as="geometry" />
        </mxCell>
        <mxCell id="iKkOTxImxHK23aBrevqH-79" value="" style="ellipse;whiteSpace=wrap;html=1;aspect=fixed;fontColor=#00AAA2;fillColor=#00AAA2;strokeColor=none;" parent="1" vertex="1">
          <mxGeometry x="505" y="502" width="11" height="11" as="geometry" />
        </mxCell>
        <mxCell id="iKkOTxImxHK23aBrevqH-80" value="" style="ellipse;whiteSpace=wrap;html=1;aspect=fixed;fontColor=#2F7FEF;fillColor=#00AAA2;strokeColor=none;" parent="1" vertex="1">
          <mxGeometry x="521" y="502" width="11" height="11" as="geometry" />
        </mxCell>
        <mxCell id="iKkOTxImxHK23aBrevqH-81" value="" style="ellipse;whiteSpace=wrap;html=1;aspect=fixed;fontColor=#2F7FEF;fillColor=#00AAA2;strokeColor=none;" parent="1" vertex="1">
          <mxGeometry x="537" y="502" width="11" height="11" as="geometry" />
        </mxCell>
        <mxCell id="iKkOTxImxHK23aBrevqH-82" value="&lt;span style=&quot;font-size: 14px&quot;&gt;&amp;nbsp; Item List&lt;/span&gt;" style="rounded=1;whiteSpace=wrap;html=1;arcSize=19;fontColor=#FFFFFF;align=left;strokeColor=none;fillColor=#00AAA2;" parent="1" vertex="1">
          <mxGeometry x="507" y="552" width="164" height="24" as="geometry" />
        </mxCell>
        <mxCell id="iKkOTxImxHK23aBrevqH-83" value="Cart Page" style="text;strokeColor=none;align=left;verticalAlign=top;spacingLeft=4;spacingRight=4;overflow=hidden;rotatable=0;points=[[0,0.5],[1,0.5]];portConstraint=eastwest;fontStyle=1;fontSize=16;labelBackgroundColor=none;fontColor=#00AAA2;" parent="1" vertex="1">
          <mxGeometry x="508" y="517" width="172" height="30" as="geometry" />
        </mxCell>
        <mxCell id="iKkOTxImxHK23aBrevqH-84" value="&lt;span style=&quot;font-size: 14px&quot;&gt;&amp;nbsp; Summary&lt;/span&gt;" style="rounded=1;whiteSpace=wrap;html=1;arcSize=19;fontColor=#FFFFFF;align=left;strokeColor=none;fillColor=#00AAA2;" parent="1" vertex="1">
          <mxGeometry x="507" y="581" width="164" height="24" as="geometry" />
        </mxCell>
        <mxCell id="iKkOTxImxHK23aBrevqH-85" value="&lt;span style=&quot;font-size: 14px&quot;&gt;&amp;nbsp; Checkout&lt;/span&gt;" style="rounded=1;whiteSpace=wrap;html=1;arcSize=19;fontColor=#FFFFFF;align=left;strokeColor=none;fillColor=#00AAA2;" parent="1" vertex="1">
          <mxGeometry x="507" y="610" width="164" height="24" as="geometry" />
        </mxCell>
        <mxCell id="iKkOTxImxHK23aBrevqH-86" value="&lt;span style=&quot;font-size: 14px&quot;&gt;&amp;nbsp; Picks Slider&lt;/span&gt;" style="rounded=1;whiteSpace=wrap;html=1;arcSize=19;fontColor=#FFFFFF;align=left;strokeColor=none;fillColor=#00AAA2;" parent="1" vertex="1">
          <mxGeometry x="507" y="640" width="164" height="24" as="geometry" />
        </mxCell>
        <mxCell id="iKkOTxImxHK23aBrevqH-87" value="" style="endArrow=none;html=1;fontSize=16;fontColor=#FFFFFF;strokeColor=#00AAA2;" parent="1" source="iKkOTxImxHK23aBrevqH-32" edge="1">
          <mxGeometry width="50" height="50" relative="1" as="geometry">
            <mxPoint x="304" y="490" as="sourcePoint" />
            <mxPoint x="360" y="470" as="targetPoint" />
          </mxGeometry>
        </mxCell>
        <mxCell id="iKkOTxImxHK23aBrevqH-88" value="" style="endArrow=none;html=1;fontSize=16;fontColor=#FFFFFF;strokeColor=#00AAA2;" parent="1" edge="1">
          <mxGeometry width="50" height="50" relative="1" as="geometry">
            <mxPoint x="820" y="470" as="sourcePoint" />
            <mxPoint x="120" y="470" as="targetPoint" />
          </mxGeometry>
        </mxCell>
        <mxCell id="iKkOTxImxHK23aBrevqH-89" value="" style="endArrow=none;html=1;fontSize=16;fontColor=#FFFFFF;strokeColor=#00AAA2;exitX=0.5;exitY=0;exitDx=0;exitDy=0;" parent="1" source="iKkOTxImxHK23aBrevqH-43" edge="1">
          <mxGeometry width="50" height="50" relative="1" as="geometry">
            <mxPoint x="850" y="480" as="sourcePoint" />
            <mxPoint x="120" y="470" as="targetPoint" />
          </mxGeometry>
        </mxCell>
        <mxCell id="iKkOTxImxHK23aBrevqH-92" value="" style="endArrow=none;html=1;fontSize=16;fontColor=#FFFFFF;strokeColor=#00AAA2;exitX=0.5;exitY=0;exitDx=0;exitDy=0;entryX=0.5;entryY=1;entryDx=0;entryDy=0;" parent="1" source="iKkOTxImxHK23aBrevqH-67" target="iKkOTxImxHK23aBrevqH-30" edge="1">
          <mxGeometry width="50" height="50" relative="1" as="geometry">
            <mxPoint x="350" y="780" as="sourcePoint" />
            <mxPoint x="390" y="720" as="targetPoint" />
            <Array as="points" />
          </mxGeometry>
        </mxCell>
        <mxCell id="iKkOTxImxHK23aBrevqH-103" value="" style="group" parent="1" vertex="1" connectable="0">
          <mxGeometry x="269" y="764" width="180" height="178" as="geometry" />
        </mxCell>
        <mxCell id="iKkOTxImxHK23aBrevqH-65" value="" style="rounded=1;whiteSpace=wrap;html=1;arcSize=2;strokeColor=#00AAA2;" parent="iKkOTxImxHK23aBrevqH-103" vertex="1">
          <mxGeometry width="180" height="178" as="geometry" />
        </mxCell>
        <mxCell id="iKkOTxImxHK23aBrevqH-67" value="" style="rounded=1;whiteSpace=wrap;html=1;arcSize=2;strokeColor=#00AAA2;" parent="iKkOTxImxHK23aBrevqH-103" vertex="1">
          <mxGeometry width="180" height="20" as="geometry" />
        </mxCell>
        <mxCell id="iKkOTxImxHK23aBrevqH-68" value="" style="ellipse;whiteSpace=wrap;html=1;aspect=fixed;fontColor=#00AAA2;fillColor=#00AAA2;strokeColor=none;" parent="iKkOTxImxHK23aBrevqH-103" vertex="1">
          <mxGeometry x="5" y="5" width="11" height="11" as="geometry" />
        </mxCell>
        <mxCell id="iKkOTxImxHK23aBrevqH-69" value="" style="ellipse;whiteSpace=wrap;html=1;aspect=fixed;fontColor=#2F7FEF;fillColor=#00AAA2;strokeColor=none;" parent="iKkOTxImxHK23aBrevqH-103" vertex="1">
          <mxGeometry x="21" y="5" width="11" height="11" as="geometry" />
        </mxCell>
        <mxCell id="iKkOTxImxHK23aBrevqH-70" value="" style="ellipse;whiteSpace=wrap;html=1;aspect=fixed;fontColor=#2F7FEF;fillColor=#00AAA2;strokeColor=none;" parent="iKkOTxImxHK23aBrevqH-103" vertex="1">
          <mxGeometry x="37" y="5" width="11" height="11" as="geometry" />
        </mxCell>
        <mxCell id="iKkOTxImxHK23aBrevqH-71" value="&lt;span style=&quot;font-size: 14px&quot;&gt;&amp;nbsp; Carousel&lt;/span&gt;" style="rounded=1;whiteSpace=wrap;html=1;arcSize=19;fillColor=#2F7FEF;fontColor=#FFFFFF;align=left;strokeColor=none;" parent="iKkOTxImxHK23aBrevqH-103" vertex="1">
          <mxGeometry x="7" y="55" width="164" height="24" as="geometry" />
        </mxCell>
        <mxCell id="iKkOTxImxHK23aBrevqH-72" value="Product Detail" style="text;strokeColor=none;align=left;verticalAlign=top;spacingLeft=4;spacingRight=4;overflow=hidden;rotatable=0;points=[[0,0.5],[1,0.5]];portConstraint=eastwest;fontStyle=1;fontSize=16;labelBackgroundColor=none;fontColor=#00AAA2;" parent="iKkOTxImxHK23aBrevqH-103" vertex="1">
          <mxGeometry x="8" y="20" width="172" height="30" as="geometry" />
        </mxCell>
        <mxCell id="iKkOTxImxHK23aBrevqH-73" value="&lt;span style=&quot;font-size: 14px&quot;&gt;&amp;nbsp; Buystack&lt;/span&gt;" style="rounded=1;whiteSpace=wrap;html=1;arcSize=19;fontColor=#FFFFFF;align=left;strokeColor=none;fillColor=#2F7FEF;" parent="iKkOTxImxHK23aBrevqH-103" vertex="1">
          <mxGeometry x="7" y="84" width="164" height="24" as="geometry" />
        </mxCell>
        <mxCell id="iKkOTxImxHK23aBrevqH-74" value="&lt;span style=&quot;font-size: 14px&quot;&gt;&amp;nbsp; Product Features&lt;/span&gt;" style="rounded=1;whiteSpace=wrap;html=1;arcSize=19;fontColor=#FFFFFF;align=left;strokeColor=none;fillColor=#00AAA2;" parent="iKkOTxImxHK23aBrevqH-103" vertex="1">
          <mxGeometry x="7" y="113" width="164" height="24" as="geometry" />
        </mxCell>
        <mxCell id="iKkOTxImxHK23aBrevqH-76" value="&lt;span style=&quot;font-size: 14px&quot;&gt;&amp;nbsp; Add To Cart&amp;nbsp;&lt;/span&gt;" style="rounded=1;whiteSpace=wrap;html=1;arcSize=19;fontColor=#FFFFFF;align=left;strokeColor=none;fillColor=#2F7FEF;" parent="iKkOTxImxHK23aBrevqH-103" vertex="1">
          <mxGeometry x="7" y="143" width="164" height="24" as="geometry" />
        </mxCell>
        <mxCell id="iKkOTxImxHK23aBrevqH-104" value="" style="group" parent="1" vertex="1" connectable="0">
          <mxGeometry x="504" y="764" width="191" height="178" as="geometry" />
        </mxCell>
        <mxCell id="iKkOTxImxHK23aBrevqH-93" value="" style="rounded=1;whiteSpace=wrap;html=1;arcSize=2;strokeColor=#00AAA2;" parent="iKkOTxImxHK23aBrevqH-104" vertex="1">
          <mxGeometry width="180" height="178" as="geometry" />
        </mxCell>
        <mxCell id="iKkOTxImxHK23aBrevqH-94" value="" style="rounded=1;whiteSpace=wrap;html=1;arcSize=2;strokeColor=#00AAA2;" parent="iKkOTxImxHK23aBrevqH-104" vertex="1">
          <mxGeometry width="180" height="20" as="geometry" />
        </mxCell>
        <mxCell id="iKkOTxImxHK23aBrevqH-95" value="" style="ellipse;whiteSpace=wrap;html=1;aspect=fixed;fontColor=#00AAA2;fillColor=#00AAA2;strokeColor=none;" parent="iKkOTxImxHK23aBrevqH-104" vertex="1">
          <mxGeometry x="5" y="5" width="11" height="11" as="geometry" />
        </mxCell>
        <mxCell id="iKkOTxImxHK23aBrevqH-96" value="" style="ellipse;whiteSpace=wrap;html=1;aspect=fixed;fontColor=#2F7FEF;fillColor=#00AAA2;strokeColor=none;" parent="iKkOTxImxHK23aBrevqH-104" vertex="1">
          <mxGeometry x="21" y="5" width="11" height="11" as="geometry" />
        </mxCell>
        <mxCell id="iKkOTxImxHK23aBrevqH-97" value="" style="ellipse;whiteSpace=wrap;html=1;aspect=fixed;fontColor=#2F7FEF;fillColor=#00AAA2;strokeColor=none;" parent="iKkOTxImxHK23aBrevqH-104" vertex="1">
          <mxGeometry x="37" y="5" width="11" height="11" as="geometry" />
        </mxCell>
        <mxCell id="iKkOTxImxHK23aBrevqH-98" value="&lt;span style=&quot;font-size: 14px&quot;&gt;&amp;nbsp; Cart&lt;/span&gt;" style="rounded=1;whiteSpace=wrap;html=1;arcSize=19;fontColor=#FFFFFF;align=left;strokeColor=none;fillColor=#00AAA2;" parent="iKkOTxImxHK23aBrevqH-104" vertex="1">
          <mxGeometry x="7" y="55" width="164" height="24" as="geometry" />
        </mxCell>
        <mxCell id="iKkOTxImxHK23aBrevqH-99" value="Checkout Page" style="text;strokeColor=none;align=left;verticalAlign=top;spacingLeft=4;spacingRight=4;overflow=hidden;rotatable=0;points=[[0,0.5],[1,0.5]];portConstraint=eastwest;fontStyle=1;fontSize=16;labelBackgroundColor=none;fontColor=#00AAA2;" parent="iKkOTxImxHK23aBrevqH-104" vertex="1">
          <mxGeometry x="8" y="20" width="172" height="30" as="geometry" />
        </mxCell>
        <mxCell id="iKkOTxImxHK23aBrevqH-100" value="&lt;span style=&quot;font-size: 14px&quot;&gt;&amp;nbsp; Information&lt;/span&gt;" style="rounded=1;whiteSpace=wrap;html=1;arcSize=19;fontColor=#FFFFFF;align=left;strokeColor=none;fillColor=#00AAA2;" parent="iKkOTxImxHK23aBrevqH-104" vertex="1">
          <mxGeometry x="7" y="84" width="164" height="24" as="geometry" />
        </mxCell>
        <mxCell id="iKkOTxImxHK23aBrevqH-101" value="&lt;span style=&quot;font-size: 14px&quot;&gt;&amp;nbsp; Shipping&lt;/span&gt;" style="rounded=1;whiteSpace=wrap;html=1;arcSize=19;fontColor=#FFFFFF;align=left;strokeColor=none;fillColor=#00AAA2;" parent="iKkOTxImxHK23aBrevqH-104" vertex="1">
          <mxGeometry x="7" y="113" width="164" height="24" as="geometry" />
        </mxCell>
        <mxCell id="iKkOTxImxHK23aBrevqH-102" value="&lt;span style=&quot;font-size: 14px&quot;&gt;&amp;nbsp; Payment&lt;/span&gt;" style="rounded=1;whiteSpace=wrap;html=1;arcSize=19;fontColor=#FFFFFF;align=left;strokeColor=none;fillColor=#00AAA2;" parent="iKkOTxImxHK23aBrevqH-104" vertex="1">
          <mxGeometry x="7" y="143" width="164" height="24" as="geometry" />
        </mxCell>
        <mxCell id="iKkOTxImxHK23aBrevqH-105" value="" style="endArrow=none;html=1;fontSize=16;fontColor=#FFFFFF;strokeColor=#00AAA2;entryX=0.5;entryY=1;entryDx=0;entryDy=0;exitX=0.483;exitY=0.017;exitDx=0;exitDy=0;exitPerimeter=0;" parent="1" source="iKkOTxImxHK23aBrevqH-94" edge="1">
          <mxGeometry width="50" height="50" relative="1" as="geometry">
            <mxPoint x="591" y="760" as="sourcePoint" />
            <mxPoint x="590.5" y="675.0000000000002" as="targetPoint" />
            <Array as="points" />
          </mxGeometry>
        </mxCell>
        <mxCell id="iKkOTxImxHK23aBrevqH-107" value="&lt;span style=&quot;font-size: 14px ; line-height: 70%&quot;&gt;&amp;nbsp; Shopify&lt;/span&gt;" style="rounded=1;whiteSpace=wrap;html=1;arcSize=9;fontColor=#FFFFFF;align=left;strokeColor=none;fillColor=#EA5E5E;" parent="1" vertex="1">
          <mxGeometry x="630" y="485.41" width="65" height="27.59" as="geometry" />
        </mxCell>
        <mxCell id="iKkOTxImxHK23aBrevqH-108" value="&lt;span style=&quot;font-size: 14px ; line-height: 70%&quot;&gt;&amp;nbsp; Shopify&lt;/span&gt;" style="rounded=1;whiteSpace=wrap;html=1;arcSize=9;fontColor=#FFFFFF;align=left;strokeColor=none;fillColor=#EA5E5E;" parent="1" vertex="1">
          <mxGeometry x="630" y="752.41" width="65" height="27.59" as="geometry" />
        </mxCell>
        <mxCell id="iKkOTxImxHK23aBrevqH-109" value="" style="endArrow=none;html=1;fontSize=16;fontColor=#FFFFFF;strokeColor=#00AAA2;exitX=0.5;exitY=0;exitDx=0;exitDy=0;" parent="1" source="iKkOTxImxHK23aBrevqH-56" edge="1">
          <mxGeometry width="50" height="50" relative="1" as="geometry">
            <mxPoint x="800.44" y="764.3399999999999" as="sourcePoint" />
            <mxPoint x="820" y="470" as="targetPoint" />
            <Array as="points" />
          </mxGeometry>
        </mxCell>
        <mxCell id="iKkOTxImxHK23aBrevqH-111" value="" style="endArrow=none;html=1;fontSize=16;fontColor=#FFFFFF;strokeColor=#00AAA2;" parent="1" edge="1">
          <mxGeometry width="50" height="50" relative="1" as="geometry">
            <mxPoint x="479" y="470" as="sourcePoint" />
            <mxPoint x="478.8" y="436" as="targetPoint" />
            <Array as="points">
              <mxPoint x="478.8" y="436" />
            </Array>
          </mxGeometry>
        </mxCell>
        <mxCell id="MgP3d4fTG7M9_wBS8kwt-1" value="" style="endArrow=none;html=1;fontSize=16;fontColor=#FFFFFF;strokeColor=#00AAA2;exitX=0.5;exitY=0;exitDx=0;exitDy=0;" edge="1" parent="1" source="iKkOTxImxHK23aBrevqH-78">
          <mxGeometry width="50" height="50" relative="1" as="geometry">
            <mxPoint x="650" y="447" as="sourcePoint" />
            <mxPoint x="590" y="470" as="targetPoint" />
          </mxGeometry>
        </mxCell>
      </root>
    </mxGraphModel>
  </diagram>
</mxfile>
